<svg width="38" height="38" viewBox="0 0 38 38" fill="none" xmlns="http://www.w3.org/2000/svg">
<path d="M19 2C15.6377 2 12.3509 2.99703 9.55531 4.86502C6.75968 6.733 4.58075 9.38804 3.29406 12.4944C2.00737 15.6007 1.67071 19.0189 2.32666 22.3165C2.98261 25.6142 4.6017 28.6433 6.97919 31.0208C9.35668 33.3983 12.3858 35.0174 15.6835 35.6734C18.9811 36.3293 22.3993 35.9926 25.5056 34.706C28.612 33.4193 31.267 31.2403 33.135 28.4447C35.003 25.6491 36 22.3623 36 19C36 14.4913 34.2089 10.1673 31.0208 6.97918C27.8327 3.79107 23.5087 2 19 2V2ZM22.66 13H21C19.67 13 19.41 13.63 19.41 14.56V16.56H22.58L22.17 19.76H19.38V28H16.08V19.79H13.31V16.59H16.08V14.23C16.023 13.6708 16.0892 13.1059 16.2739 12.575C16.4585 12.0441 16.7572 11.5601 17.1489 11.1569C17.5406 10.7538 18.0159 10.4413 18.5413 10.2414C19.0666 10.0415 19.6294 9.95915 20.19 10C21.0151 9.99698 21.8398 10.0404 22.66 10.13V13Z" fill="white"/>
</svg>
