<?xml version="1.0" encoding="utf-8"?>
<!-- Generator: Adobe Illustrator 26.5.0, SVG Export Plug-In . SVG Version: 6.00 Build 0)  -->
<svg version="1.1" id="Calque_2" xmlns="http://www.w3.org/2000/svg" xmlns:xlink="http://www.w3.org/1999/xlink" x="0px" y="0px"
	 viewBox="0 0 98 91" style="enable-background:new 0 0 98 91;" xml:space="preserve">
<style type="text/css">
	.st0{fill:#FFFFFF;}
	.st1{fill:none;stroke:#000000;stroke-opacity:0.1;}
</style>
<path class="st0" d="M49,1.1L49,1.1c21.5,0,38.9,17.4,38.9,38.9l0,0c0,21.5-17.4,38.9-38.9,38.9l0,0c-21.5,0-38.9-17.4-38.9-38.9
	l0,0C10.1,18.5,27.5,1.1,49,1.1z"/>
<path class="st1" d="M49,0.5L49,0.5c21.8,0,39.5,17.7,39.5,39.5l0,0c0,21.8-17.7,39.5-39.5,39.5l0,0C27.2,79.5,9.5,61.8,9.5,40l0,0
	C9.5,18.2,27.2,0.5,49,0.5z"/>
</svg>
