<svg width="38" height="38" viewBox="0 0 38 38" fill="none" xmlns="http://www.w3.org/2000/svg">
<path d="M19.1609 16.0498C18.5775 16.0498 18.0071 16.2228 17.522 16.547C17.0369 16.8711 16.6588 17.3318 16.4355 17.8709C16.2122 18.4099 16.1538 19.0031 16.2676 19.5753C16.3814 20.1476 16.6624 20.6732 17.075 21.0858C17.4875 21.4983 18.0132 21.7793 18.5854 21.8931C19.1577 22.0069 19.7508 21.9485 20.2899 21.7253C20.8289 21.502 21.2896 21.1239 21.6138 20.6387C21.9379 20.1536 22.1109 19.5833 22.1109 18.9998C22.1109 18.2174 21.8001 17.4671 21.2469 16.9138C20.6937 16.3606 19.9433 16.0498 19.1609 16.0498Z" fill="white"/>
<path d="M26.0492 13.78C25.9051 13.4024 25.6798 13.061 25.3892 12.78C25.11 12.4874 24.7681 12.2617 24.3892 12.12C23.8632 11.9289 23.3088 11.8275 22.7492 11.82C21.8192 11.82 21.5392 11.77 19.1792 11.77C16.8192 11.77 16.5392 11.77 15.6092 11.82C15.0496 11.8275 14.4952 11.9289 13.9692 12.12C13.5903 12.2617 13.2485 12.4874 12.9692 12.78C12.6786 13.061 12.4533 13.4024 12.3092 13.78C12.1127 14.3049 12.0078 14.8596 11.9992 15.42C11.9992 16.35 11.9492 16.63 11.9492 18.99C11.9492 21.35 11.9492 21.63 11.9992 22.57C12.0078 23.1304 12.1127 23.6852 12.3092 24.21C12.45 24.5894 12.6758 24.9314 12.9692 25.21C13.2481 25.5055 13.5899 25.7345 13.9692 25.88C14.4952 26.0711 15.0496 26.1725 15.6092 26.18C16.5392 26.18 16.8192 26.18 19.1792 26.18C21.5392 26.18 21.8192 26.18 22.7492 26.18C23.3088 26.1725 23.8632 26.0711 24.3892 25.88C24.7686 25.7345 25.1103 25.5055 25.3892 25.21C25.6827 24.9314 25.9084 24.5894 26.0492 24.21C26.2458 23.6852 26.3506 23.1304 26.3592 22.57C26.3592 21.63 26.4092 21.35 26.4092 18.99C26.4092 16.63 26.4092 16.35 26.3592 15.42C26.3506 14.8596 26.2458 14.3049 26.0492 13.78ZM19.1592 23.53C18.2609 23.53 17.3827 23.2635 16.6359 22.7642C15.8891 22.2649 15.3072 21.5552 14.9639 20.7251C14.6205 19.8949 14.5312 18.9816 14.7072 18.1006C14.8832 17.2197 15.3166 16.4107 15.9525 15.7762C16.5884 15.1417 17.3983 14.7101 18.2797 14.536C19.161 14.362 20.0741 14.4533 20.9035 14.7985C21.7329 15.1436 22.4413 15.7271 22.939 16.475C23.4366 17.2229 23.7012 18.1017 23.6992 19C23.6966 20.2024 23.2171 21.3546 22.366 22.2038C21.5148 23.0531 20.3616 23.53 19.1592 23.53ZM23.8792 15.34C23.6672 15.342 23.4593 15.2809 23.2821 15.1646C23.1048 15.0482 22.9661 14.8818 22.8836 14.6865C22.801 14.4911 22.7784 14.2757 22.8186 14.0675C22.8587 13.8593 22.9598 13.6677 23.1091 13.517C23.2583 13.3664 23.4489 13.2635 23.6568 13.2214C23.8646 13.1793 24.0802 13.1999 24.2763 13.2805C24.4724 13.3612 24.6402 13.4984 24.7582 13.6745C24.8762 13.8507 24.9392 14.058 24.9392 14.27C24.9405 14.4101 24.9141 14.549 24.8614 14.6787C24.8087 14.8085 24.7309 14.9265 24.6323 15.026C24.5337 15.1255 24.4164 15.2045 24.2872 15.2584C24.1579 15.3123 24.0193 15.34 23.8792 15.34Z" fill="white"/>
<path d="M19 2C15.6377 2 12.3509 2.99703 9.55531 4.86502C6.75968 6.733 4.58075 9.38804 3.29406 12.4944C2.00737 15.6007 1.67071 19.0189 2.32666 22.3165C2.98261 25.6142 4.6017 28.6433 6.97919 31.0208C9.35668 33.3983 12.3858 35.0174 15.6835 35.6734C18.9811 36.3293 22.3993 35.9926 25.5056 34.706C28.612 33.4193 31.267 31.2403 33.135 28.4447C35.003 25.6491 36 22.3623 36 19C36 14.4913 34.2089 10.1673 31.0208 6.97918C27.8327 3.79107 23.5087 2 19 2ZM28 22.64C27.9781 23.3706 27.8396 24.093 27.59 24.78C27.3741 25.3695 27.033 25.9052 26.59 26.35C26.1419 26.7889 25.6072 27.1295 25.02 27.35C24.3325 27.6101 23.605 27.7488 22.87 27.76C21.93 27.76 21.63 27.76 19.23 27.76C16.83 27.76 16.53 27.76 15.58 27.76C14.8483 27.7481 14.1243 27.6093 13.44 27.35C12.8516 27.1319 12.3164 26.791 11.87 26.35C11.427 25.9052 11.0859 25.3695 10.87 24.78C10.6155 24.0944 10.477 23.3711 10.46 22.64C10.46 21.7 10.46 21.4 10.46 18.99C10.46 16.58 10.46 16.29 10.46 15.35C10.4783 14.6157 10.6168 13.8894 10.87 13.2C11.0885 12.6148 11.4295 12.0829 11.87 11.64C12.3138 11.1958 12.8498 10.8544 13.44 10.64C14.1243 10.3807 14.8483 10.2419 15.58 10.23C16.58 10.18 16.83 10.17 19.23 10.17C21.63 10.17 21.93 10.17 22.87 10.23C23.605 10.2412 24.3325 10.3799 25.02 10.64C25.6073 10.8665 26.1409 11.2129 26.5868 11.6571C27.0328 12.1013 27.3812 12.6336 27.61 13.22C27.8497 13.9055 27.9813 14.6241 28 15.35C28 16.29 28.05 16.59 28.05 18.99C28.05 21.39 28 21.7 28 22.64Z" fill="white"/>
</svg>
