<svg width="38" height="38" viewBox="0 0 38 38" fill="none" xmlns="http://www.w3.org/2000/svg">
<path d="M19 2C15.6377 2 12.3509 2.99703 9.55531 4.86502C6.75968 6.733 4.58075 9.38804 3.29406 12.4944C2.00737 15.6007 1.67071 19.0189 2.32666 22.3165C2.98261 25.6142 4.6017 28.6433 6.97919 31.0208C9.35668 33.3983 12.3858 35.0174 15.6835 35.6734C18.9811 36.3293 22.3993 35.9926 25.5056 34.706C28.612 33.4193 31.267 31.2403 33.135 28.4447C35.003 25.6491 36 22.3623 36 19C36 14.4913 34.2089 10.1673 31.0208 6.97918C27.8327 3.79107 23.5087 2 19 2V2ZM14.85 26.06H11.72V16H14.85V26.06ZM13.29 14.63C12.9296 14.632 12.5768 14.5269 12.2762 14.3281C11.9755 14.1294 11.7407 13.8458 11.6014 13.5134C11.4621 13.1811 11.4247 12.8148 11.4938 12.4611C11.5629 12.1074 11.7354 11.7822 11.9895 11.5266C12.2437 11.2711 12.5679 11.0968 12.9212 11.0257C13.2746 10.9547 13.641 10.9902 13.9742 11.1276C14.3073 11.2651 14.5921 11.4983 14.7926 11.7978C14.993 12.0973 15.1 12.4496 15.1 12.81C15.1 13.291 14.9096 13.7524 14.5705 14.0934C14.2313 14.4344 13.771 14.6274 13.29 14.63V14.63ZM26.56 26.06H23.43V21.17C23.43 20 23.43 18.5 21.81 18.5C20.19 18.5 19.93 19.77 19.93 21.09V26.09H16.81V16H19.81V17.38C20.1139 16.8606 20.5541 16.4342 21.0828 16.1469C21.6116 15.8596 22.2089 15.7223 22.81 15.75C25.98 15.75 26.56 17.83 26.56 20.54V26.06Z" fill="white"/>
</svg>
