<svg width="38" height="38" viewBox="0 0 38 38" fill="none" xmlns="http://www.w3.org/2000/svg">
<path d="M18.8906 2C15.5284 2 12.2416 2.99703 9.44594 4.86502C6.6503 6.733 4.47137 9.38804 3.18468 12.4944C1.89799 15.6007 1.56133 19.0189 2.21728 22.3165C2.87323 25.6142 4.49232 28.6433 6.86982 31.0208C9.24731 33.3983 12.2764 35.0174 15.5741 35.6734C18.8718 36.3293 22.2899 35.9926 25.3963 34.706C28.5026 33.4193 31.1576 31.2403 33.0256 28.4447C34.8936 25.6491 35.8906 22.3623 35.8906 19C35.8906 16.7675 35.4509 14.5569 34.5966 12.4944C33.7423 10.4318 32.49 8.55778 30.9114 6.97918C29.3329 5.40059 27.4588 4.14838 25.3963 3.29405C23.3337 2.43972 21.1231 2 18.8906 2ZM29.2506 19.87C29.2419 20.9927 29.1752 22.1142 29.0506 23.23C28.949 23.9732 28.6675 24.6803 28.2306 25.29C27.9638 25.5638 27.6451 25.7818 27.2931 25.9312C26.9412 26.0805 26.563 26.1583 26.1806 26.16C23.3106 26.37 19.0006 26.38 19.0006 26.38C19.0006 26.38 13.6706 26.33 12.0006 26.17C11.1653 26.1617 10.3617 25.8488 9.74063 25.29C9.33001 24.6738 9.076 23.9667 9.00063 23.23C8.86982 22.1146 8.79972 20.993 8.79063 19.87V18.3C8.80138 17.197 8.87148 16.0954 9.00063 15C9.09694 14.2571 9.37518 13.5495 9.81063 12.94C10.3295 12.3726 11.0525 12.0345 11.8206 12C14.6906 11.8 19.0006 11.8 19.0006 11.8C19.0006 11.8 23.3106 11.8 26.1806 12.01C26.5635 12.0141 26.9418 12.0939 27.2936 12.245C27.6455 12.396 27.9639 12.6152 28.2306 12.89C28.6751 13.5142 28.9569 14.2394 29.0506 15C29.1754 16.1124 29.2422 17.2306 29.2506 18.35V19.87Z" fill="white"/>
<path d="M22.47 18.4101L17.23 15.6501C17.1552 15.608 17.0708 15.5859 16.985 15.5859C16.8992 15.5859 16.8148 15.608 16.74 15.6501C16.6663 15.6949 16.6055 15.7581 16.5634 15.8335C16.5213 15.9088 16.4995 15.9938 16.5 16.0801V21.5801C16.5005 21.6662 16.5227 21.7508 16.5647 21.826C16.6066 21.9012 16.667 21.9645 16.74 22.0101C16.8201 22.0531 16.9091 22.0771 17 22.0801C17.0806 22.0806 17.1599 22.0599 17.23 22.0201L22.46 19.2801C22.5408 19.2382 22.6086 19.1751 22.6562 19.0976C22.7038 19.0201 22.7293 18.931 22.73 18.8401C22.7275 18.7521 22.7022 18.6662 22.6566 18.5908C22.6111 18.5155 22.5468 18.4532 22.47 18.4101Z" fill="white"/>
</svg>
